<mxfile host="Electron" agent="Mozilla/5.0 (X11; Linux x86_64) AppleWebKit/537.36 (KHTML, like Gecko) draw.io/26.0.4 Chrome/128.0.6613.186 Electron/32.2.5 Safari/537.36" version="26.0.4">
  <diagram id="prtHgNgQTEPvFCAcTncT" name="Page-1">
    <mxGraphModel dx="943" dy="578" grid="1" gridSize="10" guides="1" tooltips="1" connect="1" arrows="1" fold="1" page="1" pageScale="1" pageWidth="827" pageHeight="1169" math="0" shadow="0">
      <root>
        <mxCell id="0" />
        <mxCell id="1" parent="0" />
        <mxCell id="SgDf6SP0DHIIqocupiew-1" value="" style="rounded=0;whiteSpace=wrap;html=1;" parent="1" vertex="1">
          <mxGeometry x="80" y="40" width="400" height="240" as="geometry" />
        </mxCell>
        <mxCell id="SgDf6SP0DHIIqocupiew-13" value="" style="rounded=0;whiteSpace=wrap;html=1;dashed=1;fillColor=#60a917;fontColor=#ffffff;strokeColor=none;" parent="1" vertex="1">
          <mxGeometry x="80" y="90" width="400" height="60" as="geometry" />
        </mxCell>
        <mxCell id="SgDf6SP0DHIIqocupiew-2" value="Class 0" style="rounded=0;whiteSpace=wrap;html=1;fillColor=#1ba1e2;fontColor=#ffffff;strokeColor=#006EAF;direction=south;rotation=-90;" parent="1" vertex="1">
          <mxGeometry x="70" y="175" width="170" height="40" as="geometry" />
        </mxCell>
        <mxCell id="SgDf6SP0DHIIqocupiew-3" value="Class 1" style="rounded=0;whiteSpace=wrap;html=1;fillColor=#1ba1e2;fontColor=#ffffff;strokeColor=#006EAF;direction=south;rotation=-90;" parent="1" vertex="1">
          <mxGeometry x="130" y="185" width="150" height="40" as="geometry" />
        </mxCell>
        <mxCell id="SgDf6SP0DHIIqocupiew-4" value="Class 2" style="rounded=0;whiteSpace=wrap;html=1;fillColor=#1ba1e2;fontColor=#ffffff;strokeColor=#006EAF;direction=south;rotation=-90;" parent="1" vertex="1">
          <mxGeometry x="165" y="170" width="180" height="40" as="geometry" />
        </mxCell>
        <mxCell id="SgDf6SP0DHIIqocupiew-5" value="Class 3" style="rounded=0;whiteSpace=wrap;html=1;fillColor=#1ba1e2;fontColor=#ffffff;strokeColor=#006EAF;direction=south;rotation=-90;" parent="1" vertex="1">
          <mxGeometry x="235" y="190" width="140" height="40" as="geometry" />
        </mxCell>
        <mxCell id="SgDf6SP0DHIIqocupiew-6" value="Class 4" style="rounded=0;whiteSpace=wrap;html=1;fillColor=#1ba1e2;fontColor=#ffffff;strokeColor=#006EAF;direction=south;rotation=-90;" parent="1" vertex="1">
          <mxGeometry x="275" y="180" width="160" height="40" as="geometry" />
        </mxCell>
        <mxCell id="SgDf6SP0DHIIqocupiew-7" value="Class 5" style="rounded=0;whiteSpace=wrap;html=1;fillColor=#1ba1e2;fontColor=#ffffff;strokeColor=#006EAF;direction=south;rotation=-90;" parent="1" vertex="1">
          <mxGeometry x="320" y="175" width="170" height="40" as="geometry" />
        </mxCell>
        <mxCell id="SgDf6SP0DHIIqocupiew-9" value="" style="endArrow=none;dashed=1;html=1;rounded=0;dashPattern=12 12;fillColor=#d80073;strokeColor=#0A6600;exitX=1;exitY=0.5;exitDx=0;exitDy=0;entryX=0;entryY=0.5;entryDx=0;entryDy=0;" parent="1" source="SgDf6SP0DHIIqocupiew-13" target="SgDf6SP0DHIIqocupiew-13" edge="1">
          <mxGeometry width="50" height="50" relative="1" as="geometry">
            <mxPoint x="870" y="130" as="sourcePoint" />
            <mxPoint x="550" y="130" as="targetPoint" />
          </mxGeometry>
        </mxCell>
        <mxCell id="SgDf6SP0DHIIqocupiew-16" value="Tolerance: 5%" style="rounded=0;whiteSpace=wrap;html=1;" parent="1" vertex="1">
          <mxGeometry x="290" y="290" width="190" height="60" as="geometry" />
        </mxCell>
        <mxCell id="SgDf6SP0DHIIqocupiew-17" value="Balanced" style="rounded=0;whiteSpace=wrap;html=1;fillColor=#60a917;fontColor=#ffffff;strokeColor=#2D7600;" parent="1" vertex="1">
          <mxGeometry x="80" y="370" width="190" height="60" as="geometry" />
        </mxCell>
        <mxCell id="SgDf6SP0DHIIqocupiew-18" value="Balanced: yes" style="rounded=0;whiteSpace=wrap;html=1;fillColor=#60a917;fontColor=#ffffff;strokeColor=#2D7600;" parent="1" vertex="1">
          <mxGeometry x="80" y="290" width="190" height="60" as="geometry" />
        </mxCell>
        <mxCell id="1D6VDFF0X7Yo48B3J532-3" value="Unbalanced" style="rounded=0;whiteSpace=wrap;html=1;fillColor=#a20025;fontColor=#ffffff;strokeColor=#6F0000;" parent="1" vertex="1">
          <mxGeometry x="290" y="370" width="190" height="60" as="geometry" />
        </mxCell>
      </root>
    </mxGraphModel>
  </diagram>
</mxfile>
